<svg width="100" height="100" viewBox="0 0 100 100" fill="none" xmlns="http://www.w3.org/2000/svg">
<path d="M50.5 27.25C52.5357 19.1905 60.2243 15.0753 76.9643 15C77.2319 14.999 77.4971 15.0511 77.7445 15.1534C77.9919 15.2556 78.2168 15.406 78.406 15.5957C78.5952 15.7855 78.7451 16.011 78.8471 16.2592C78.949 16.5073 79.001 16.7733 79 17.0417V53.7917C79 54.3332 78.7855 54.8525 78.4037 55.2353C78.022 55.6182 77.5042 55.8333 76.9643 55.8333C60.6786 55.8333 54.3869 59.1268 50.5 64M50.5 27.25C48.4643 19.1905 40.7757 15.0753 24.0357 15C23.7681 14.999 23.5029 15.0511 23.2555 15.1534C23.0081 15.2556 22.7832 15.406 22.594 15.5957C22.4048 15.7855 22.2549 16.011 22.1529 16.2592C22.051 16.5073 21.999 16.7733 22 17.0417V53.5454C22 54.8061 22.7787 55.8333 24.0357 55.8333C40.3214 55.8333 46.636 59.151 50.5 64M50.5 27.25V64" stroke="#FF6B00" stroke-width="8" stroke-linecap="round" stroke-linejoin="round"/>
<path d="M21.796 92.416H24.484V94H19.744V85.576H21.796V92.416ZM26.4948 86.608C26.1348 86.608 25.8388 86.504 25.6068 86.296C25.3828 86.08 25.2708 85.816 25.2708 85.504C25.2708 85.184 25.3828 84.92 25.6068 84.712C25.8388 84.496 26.1348 84.388 26.4948 84.388C26.8468 84.388 27.1348 84.496 27.3588 84.712C27.5908 84.92 27.7068 85.184 27.7068 85.504C27.7068 85.816 27.5908 86.08 27.3588 86.296C27.1348 86.504 26.8468 86.608 26.4948 86.608ZM27.5148 87.304V94H25.4628V87.304H27.5148ZM31.0538 88.252C31.2458 87.94 31.5218 87.688 31.8818 87.496C32.2418 87.304 32.6538 87.208 33.1178 87.208C33.6698 87.208 34.1698 87.348 34.6178 87.628C35.0658 87.908 35.4178 88.308 35.6738 88.828C35.9378 89.348 36.0698 89.952 36.0698 90.64C36.0698 91.328 35.9378 91.936 35.6738 92.464C35.4178 92.984 35.0658 93.388 34.6178 93.676C34.1698 93.956 33.6698 94.096 33.1178 94.096C32.6458 94.096 32.2338 94.004 31.8818 93.82C31.5298 93.628 31.2538 93.376 31.0538 93.064V94H29.0018V85.12H31.0538V88.252ZM33.9818 90.64C33.9818 90.128 33.8378 89.728 33.5498 89.44C33.2698 89.144 32.9218 88.996 32.5058 88.996C32.0978 88.996 31.7498 89.144 31.4618 89.44C31.1818 89.736 31.0418 90.14 31.0418 90.652C31.0418 91.164 31.1818 91.568 31.4618 91.864C31.7498 92.16 32.0978 92.308 32.5058 92.308C32.9138 92.308 33.2618 92.16 33.5498 91.864C33.8378 91.56 33.9818 91.152 33.9818 90.64ZM39.1983 88.42C39.4383 88.052 39.7383 87.764 40.0983 87.556C40.4583 87.34 40.8583 87.232 41.2983 87.232V89.404H40.7343C40.2223 89.404 39.8383 89.516 39.5823 89.74C39.3263 89.956 39.1983 90.34 39.1983 90.892V94H37.1463V87.304H39.1983V88.42ZM41.8712 90.64C41.8712 89.952 41.9992 89.348 42.2552 88.828C42.5192 88.308 42.8752 87.908 43.3232 87.628C43.7712 87.348 44.2712 87.208 44.8232 87.208C45.2952 87.208 45.7072 87.304 46.0592 87.496C46.4192 87.688 46.6952 87.94 46.8872 88.252V87.304H48.9392V94H46.8872V93.052C46.6872 93.364 46.4072 93.616 46.0472 93.808C45.6952 94 45.2832 94.096 44.8112 94.096C44.2672 94.096 43.7712 93.956 43.3232 93.676C42.8752 93.388 42.5192 92.984 42.2552 92.464C41.9992 91.936 41.8712 91.328 41.8712 90.64ZM46.8872 90.652C46.8872 90.14 46.7432 89.736 46.4552 89.44C46.1752 89.144 45.8312 88.996 45.4232 88.996C45.0152 88.996 44.6672 89.144 44.3792 89.44C44.0992 89.728 43.9592 90.128 43.9592 90.64C43.9592 91.152 44.0992 91.56 44.3792 91.864C44.6672 92.16 45.0152 92.308 45.4232 92.308C45.8312 92.308 46.1752 92.16 46.4552 91.864C46.7432 91.568 46.8872 91.164 46.8872 90.652ZM52.4757 88.42C52.7157 88.052 53.0157 87.764 53.3757 87.556C53.7357 87.34 54.1357 87.232 54.5757 87.232V89.404H54.0117C53.4997 89.404 53.1157 89.516 52.8597 89.74C52.6037 89.956 52.4757 90.34 52.4757 90.892V94H50.4237V87.304H52.4757V88.42ZM56.5885 86.608C56.2285 86.608 55.9325 86.504 55.7005 86.296C55.4765 86.08 55.3645 85.816 55.3645 85.504C55.3645 85.184 55.4765 84.92 55.7005 84.712C55.9325 84.496 56.2285 84.388 56.5885 84.388C56.9405 84.388 57.2285 84.496 57.4525 84.712C57.6845 84.92 57.8005 85.184 57.8005 85.504C57.8005 85.816 57.6845 86.08 57.4525 86.296C57.2285 86.504 56.9405 86.608 56.5885 86.608ZM57.6085 87.304V94H55.5565V87.304H57.6085ZM58.6876 90.64C58.6876 89.952 58.8156 89.348 59.0716 88.828C59.3356 88.308 59.6916 87.908 60.1396 87.628C60.5876 87.348 61.0876 87.208 61.6396 87.208C62.1116 87.208 62.5236 87.304 62.8756 87.496C63.2356 87.688 63.5116 87.94 63.7036 88.252V87.304H65.7556V94H63.7036V93.052C63.5036 93.364 63.2236 93.616 62.8636 93.808C62.5116 94 62.0996 94.096 61.6276 94.096C61.0836 94.096 60.5876 93.956 60.1396 93.676C59.6916 93.388 59.3356 92.984 59.0716 92.464C58.8156 91.936 58.6876 91.328 58.6876 90.64ZM63.7036 90.652C63.7036 90.14 63.5596 89.736 63.2716 89.44C62.9916 89.144 62.6476 88.996 62.2396 88.996C61.8316 88.996 61.4836 89.144 61.1956 89.44C60.9156 89.728 60.7756 90.128 60.7756 90.64C60.7756 91.152 60.9156 91.56 61.1956 91.864C61.4836 92.16 61.8316 92.308 62.2396 92.308C62.6476 92.308 62.9916 92.16 63.2716 91.864C63.5596 91.568 63.7036 91.164 63.7036 90.652ZM71.3201 87.232C72.1041 87.232 72.7281 87.488 73.1921 88C73.6641 88.504 73.9001 89.2 73.9001 90.088V94H71.8601V90.364C71.8601 89.916 71.7441 89.568 71.5121 89.32C71.2801 89.072 70.9681 88.948 70.5761 88.948C70.1841 88.948 69.8721 89.072 69.6401 89.32C69.4081 89.568 69.2921 89.916 69.2921 90.364V94H67.2401V87.304H69.2921V88.192C69.5001 87.896 69.7801 87.664 70.1321 87.496C70.4841 87.32 70.8801 87.232 71.3201 87.232ZM77.51 92.32H81.134V94H75.182V92.44L78.782 87.256H75.182V85.576H81.134V87.136L77.51 92.32Z" fill="white"/>
</svg>
